 http://www.shotpix.com/images/66614739473527857300.jpg

General
Complete name                            : Justin Bieber - Boyfriend [Music Video] 1080p [Sbyky].mp4
Format                                   : MPEG-4
Format profile                           : Base Media / Version 2
Codec ID                                 : mp42
File size                                : 118 MiB
Duration                                 : 3mn 30s
Overall bit rate mode                    : Variable
Overall bit rate                         : 4 691 Kbps
Encoded date                             : UTC 2012-04-30 17:18:19
Tagged date                              : UTC 2012-04-30 17:18:19
gsst                                     : 0
gstd                                     : 210626
gssd                                     : BADC21F82HH1359200461880174
gshh                                     :

Video
ID                                       : 1
Format                                   : AVC
Format/Info                              : Advanced Video Codec
Format profile                           : High@L4.0
Format settings, CABAC                   : Yes
Format settings, ReFrames                : 1 frame
Codec ID                                 : avc1
Codec ID/Info                            : Advanced Video Coding
Duration                                 : 3mn 30s
Bit rate                                 : 4 543 Kbps
Maximum bit rate                         : 8 185 Kbps
Width                                    : 1 920 pixels
Height                                   : 1 080 pixels
Display aspect ratio                     : 16:9
Frame rate mode                          : Constant
Frame rate                               : 23.976 fps
Color space                              : YUV
Chroma subsampling                       : 4:2:0
Bit depth                                : 8 bits
Scan type                                : Progressive
Bits/(Pixel*Frame)                       : 0.091
Stream size                              : 114 MiB (97%)
Tagged date                              : UTC 2012-04-30 17:18:19

Audio
ID                                       : 2
Format                                   : AAC
Format/Info                              : Advanced Audio Codec
Format profile                           : LC
Codec ID                                 : 40
Duration                                 : 3mn 30s
Bit rate mode                            : Variable
Bit rate                                 : 144 Kbps
Maximum bit rate                         : 222 Kbps
Channel(s)                               : 2 channels
Channel positions                        : Front: L R
Sampling rate                            : 44.1 KHz
Compression mode                         : Lossy
Stream size                              : 3.67 MiB (3%)
Title                                    : IsoMedia File Produced by Google, 5-11-2011
Encoded date                             : UTC 2012-04-30 17:18:19
Tagged date                              : UTC 2012-04-30 17:18:19

Shared By Sbyky 
http://www.shotpix.com/images/36391391396177178781.gif 
http://www.shotpix.com/images/54442018924177629170.gif